<svg id="icon-cookies" viewBox="0 0 32 32" width="100%" height="100%"><title>cookies</title> <g id="cookies-icons"> <path d="M16,4c6.6,0,11.9,5.3,12,11.9c0.1,6.6-5.3,12-11.9,12.1L16,28C9.4,28,4.1,22.7,4,16.1
        C3.9,9.5,9.3,4.1,15.9,4L16,4 M16,2c0,0-0.1,0-0.1,0C8.1,2.1,1.9,8.4,2,16.1C2.1,23.8,8.3,30,16,30c0,0,0.1,0,0.1,0
        c7.7-0.1,13.9-6.4,13.9-14.1C29.9,8.2,23.7,2,16,2L16,2z" fill="#E6E6E6"></path> <g> <path d="M16,19.7c1.1,0,1.8,0.6,1.8,1.6c0,1-0.7,1.6-1.8,1.6c-1.2,0-1.8-0.7-1.8-1.6C14.2,20.4,14.9,19.7,16,19.7z
             M14.4,13.4V9h3.3v4.5l-0.3,5h-2.7L14.4,13.4z" fill="#E6E6E6"></path> </g> </g>   </svg>
