<svg id="icon-account" viewBox="0 0 32 32" width="100%" height="100%"><title>account</title> <g id="account-icons"> <g> <path d="M25.7,14.3c0.2,0.6,0.3,1.1,0.3,1.7c0,3.3-2.7,6-6,6c0,0,0,0-0.1,0c-0.1-1-0.6-1.6-1.9-2
            c-1-0.3-1.7-0.5-2.3-0.7c-0.2-0.1-0.5-0.2-0.7-0.3c-0.5-0.2-0.8-1.1-0.5-1.6c0.1-0.3,0.5-0.7,0.7-1.4c0,0,0,0,0,0c0,0,0,0,0,0
            c0.3-0.1,0.6-0.3,0.7-0.7l0.1-0.5c0.1-0.3-0.1-0.6-0.4-0.8c0.1-0.7,0-1.3-0.2-1.9c1.1-1.3,2.8-2.2,4.6-2.2c1.1,0,2.2,0.3,3.1,0.9
            l0.7-0.7C22.7,9.4,21.4,9,20,9c-2.1,0-4,0.9-5.3,2.4C14.3,11.2,13.8,11,13,11c-2.4,0-2.7,1.4-2.5,3.1c-0.3,0.1-0.5,0.4-0.4,0.8
            l0.1,0.5c0.1,0.3,0.3,0.6,0.7,0.7c0,0,0,0,0,0c0,0,0,0,0,0c0.2,0.7,0.6,1.2,0.7,1.4c0.3,0.5,0,1.4-0.5,1.6
            c-0.2,0.1-0.5,0.2-0.7,0.3C9.7,19.5,9,19.7,8,20c-1.8,0.5-2,1.4-2,3h14c3.9,0,7-3.1,7-7c0-0.9-0.2-1.7-0.5-2.5L25.7,14.3z"></path> <polygon points="18,14 17,15 20,18 28,10 27,9 20,16      "></polygon> </g> </g>   </svg>
