<?xml version="1.0" encoding="utf-8"?>
<!-- Generator: Adobe Illustrator 18.1.0, SVG Export Plug-In . SVG Version: 6.00 Build 0)  -->
<!DOCTYPE svg PUBLIC "-//W3C//DTD SVG 1.1//EN" "http://www.w3.org/Graphics/SVG/1.1/DTD/svg11.dtd">
<svg version="1.1" xmlns="http://www.w3.org/2000/svg" xmlns:xlink="http://www.w3.org/1999/xlink" x="0px" y="0px" width="204px"
	 height="52px" viewBox="0 0 204 52" enable-background="new 0 0 204 52" xml:space="preserve">
<g id="colour:_negative">
	<g>
		<path fill="#3D883D" d="M188.1,17.4c-3,0-4.9,2.3-4.9,5.3c0,3,1.9,5.3,4.9,5.3c2.9,0,4.9-2.3,4.9-5.3
			C193,19.6,191,17.4,188.1,17.4z"/>
		<path fill="#3D883D" d="M200,0h-40c-2.2,0-4,1.8-4,4v40c0,2.2,1.8,4,4,4h40c2.2,0,4-1.8,4-4V4C204,1.8,202.2,0,200,0z M178.6,27.6
			c-1.4,1.6-3.5,2.7-6,2.7c-4.3,0-7.7-3-7.7-7.6c0-4.6,3.4-7.6,7.7-7.6c2.9,0,4.7,1.4,5.9,3l-2.1,1.2c-0.8-1.1-2.2-2-3.8-2
			c-2.9,0-5.1,2.2-5.1,5.3c0,3.1,2.2,5.3,5.1,5.3c1.5,0,2.8-0.7,3.5-1.3v-2.3h-4.4v-2.3h7V27.6z M188.1,30.3c-4.4,0-7.5-3.2-7.5-7.6
			s3.1-7.6,7.5-7.6c4.4,0,7.5,3.2,7.5,7.6S192.5,30.3,188.1,30.3z"/>
	</g>
	<g>
		<path fill="#5AC85A" d="M200,0h-40c-2.2,0-4,1.8-4,4v36c0,2.2,1.8,4,4,4h40c2.2,0,4-1.8,4-4V4C204,1.8,202.2,0,200,0z M178.6,27.6
			c-1.4,1.6-3.5,2.7-6,2.7c-4.3,0-7.7-3-7.7-7.6c0-4.6,3.4-7.6,7.7-7.6c2.9,0,4.7,1.4,5.9,3l-2.1,1.2c-0.8-1.1-2.2-2-3.8-2
			c-2.9,0-5.1,2.2-5.1,5.3c0,3.1,2.2,5.3,5.1,5.3c1.5,0,2.8-0.7,3.5-1.3v-2.3h-4.4v-2.3h7V27.6z M188.1,30.3c-4.4,0-7.5-3.2-7.5-7.6
			s3.1-7.6,7.5-7.6c4.4,0,7.5,3.2,7.5,7.6S192.5,30.3,188.1,30.3z"/>
		<path fill="#5AC85A" d="M188.1,17.4c-3,0-4.9,2.3-4.9,5.3c0,3,1.9,5.3,4.9,5.3c2.9,0,4.9-2.3,4.9-5.3
			C193,19.6,191,17.4,188.1,17.4z"/>
	</g>
	<g>
		<g>
			<path fill="#FFFFFF" d="M1.7,22c0-6.2,4.5-10.3,10.1-10.3c3.2,0,5.6,1.4,7.3,3.5l-1.4,0.9c-1.3-1.7-3.5-2.9-5.8-2.9
				c-4.7,0-8.3,3.6-8.3,8.8c0,5.2,3.7,8.8,8.3,8.8c2.4,0,4.6-1.2,5.8-2.9l1.5,0.9c-1.8,2.2-4.1,3.6-7.3,3.6
				C6.2,32.4,1.7,28.2,1.7,22z"/>
			<path fill="#FFFFFF" d="M32.7,32v-2.3c-1,1.5-2.9,2.7-5,2.7c-3.8,0-6.4-2.9-6.4-7.6c0-4.6,2.6-7.6,6.4-7.6c2.1,0,3.9,1,5,2.7
				v-2.3h1.6V32H32.7z M32.7,28.4v-7.2c-0.8-1.4-2.7-2.6-4.8-2.6c-3.2,0-5.1,2.7-5.1,6.2s1.9,6.2,5.1,6.2C30,31,31.9,29.8,32.7,28.4
				z"/>
			<path fill="#FFFFFF" d="M55.7,32V21.9c0-2-0.9-3.3-2.9-3.3c-1.6,0-3.3,1.1-4.1,2.5v11h-1.6V21.9c0-2-0.8-3.3-2.9-3.3
				c-1.6,0-3.3,1.2-4.2,2.5V32h-1.6V17.5H40v2.2c0.6-0.9,2.6-2.5,4.7-2.5c2.2,0,3.4,1.3,3.8,2.7c0.8-1.4,2.8-2.7,4.8-2.7
				c2.7,0,4,1.5,4,4.4V32H55.7z"/>
			<path fill="#FFFFFF" d="M61.4,32V12h1.6v7.9c1.2-1.7,3-2.7,5-2.7c3.9,0,6.5,3,6.5,7.6c0,4.6-2.6,7.6-6.5,7.6c-2.2,0-4-1.2-5-2.7
				V32H61.4z M67.7,31c3.2,0,5.1-2.7,5.1-6.2s-1.8-6.2-5.1-6.2c-2,0-3.9,1.3-4.8,2.6v7.2C63.8,29.8,65.7,31,67.7,31z"/>
			<path fill="#FFFFFF" d="M77.8,32V17.5h1.6V20c1.2-1.6,2.9-2.8,4.9-2.8v1.7c-0.3-0.1-0.5-0.1-0.8-0.1c-1.5,0-3.5,1.3-4.1,2.6V32
				H77.8z"/>
			<path fill="#FFFFFF" d="M86.3,14c0-0.7,0.6-1.2,1.2-1.2c0.7,0,1.2,0.5,1.2,1.2c0,0.7-0.5,1.2-1.2,1.2
				C86.9,15.2,86.3,14.7,86.3,14z M86.7,32V17.5h1.6V32H86.7z"/>
			<path fill="#FFFFFF" d="M103,32v-2.3c-1,1.5-2.9,2.7-5,2.7c-3.8,0-6.4-2.9-6.4-7.6c0-4.6,2.6-7.6,6.4-7.6c2.1,0,3.9,1,5,2.7V12
				h1.6v20H103z M103,28.4v-7.2c-0.8-1.4-2.7-2.6-4.8-2.6c-3.2,0-5.1,2.7-5.1,6.2S95,31,98.2,31C100.3,31,102.2,29.8,103,28.4z"/>
			<path fill="#FFFFFF" d="M108.8,35.7l0.9-1.3c1.3,1.5,2.6,2,4.8,2c2.6,0,4.9-1.3,4.9-4.6v-2.3c-1,1.5-2.9,2.7-5,2.7
				c-3.8,0-6.4-2.9-6.4-7.6c0-4.6,2.6-7.6,6.4-7.6c2.1,0,3.9,1,5,2.7v-2.3h1.6v14.4c0,4.4-3,6-6.5,6
				C112.1,37.9,110.5,37.4,108.8,35.7z M119.4,28.2v-7c-0.8-1.4-2.8-2.6-4.8-2.6c-3.2,0-5.1,2.7-5.1,6.2s1.9,6.1,5.1,6.1
				C116.7,30.9,118.6,29.7,119.4,28.2z"/>
			<path fill="#FFFFFF" d="M124.3,24.7c0-4.2,2.9-7.6,7-7.6c4.4,0,6.8,3.5,6.8,7.7v0.4H126c0.2,3.2,2.2,5.8,5.7,5.8
				c1.8,0,3.5-0.7,4.7-2l0.8,1c-1.4,1.5-3.3,2.3-5.7,2.3C127.3,32.4,124.3,29.2,124.3,24.7z M131.2,18.5c-3.4,0-5.1,3-5.2,5.5h10.5
				C136.5,21.6,134.9,18.5,131.2,18.5z"/>
		</g>
	</g>
</g>
<g id="mono:_negative">
</g>
<g id="colour:_positive">
</g>
<g id="mono:_positive">
</g>
</svg>
